<?xml version="1.0" encoding="UTF-8"?>
<!DOCTYPE svg PUBLIC "-//W3C//DTD SVG 1.1//EN" "http://www.w3.org/Graphics/SVG/1.1/DTD/svg11.dtd">
<!-- Creator: CorelDRAW 2020 (64 Bit) -->
<svg xmlns="http://www.w3.org/2000/svg" xml:space="preserve" width="239.431mm" height="178.512mm" version="1.1" style="shape-rendering:geometricPrecision; text-rendering:geometricPrecision; image-rendering:optimizeQuality; fill-rule:evenodd; clip-rule:evenodd"
viewBox="0 0 23942.02 17850.4"
 xmlns:xlink="http://www.w3.org/1999/xlink"
 xmlns:xodm="http://www.corel.com/coreldraw/odm/2003">
 <defs>
  <style type="text/css">
   <![CDATA[
    .fil1 {fill:#226FB3}
    .fil0 {fill:#325675;fill-rule:nonzero}
   ]]>
  </style>
 </defs>
 <g id="Camada_x0020_1">
  <metadata id="CorelCorpID_0Corel-Layer"/>
  <path class="fil0" d="M6082.36 11725.04l0 306.22c-111.19,57.91 -224.68,101.92 -340.03,132.02 -115.35,30.12 -229.78,45.41 -342.81,45.41 -108.87,0 -212.64,-14.37 -311.32,-42.63 -98.67,-28.72 -191.78,-70.88 -279.81,-126.92 -140.83,-92.2 -250.62,-210.32 -328.92,-353.47 -78.29,-143.61 -117.66,-299.27 -117.66,-467.89 0,-127.4 25.94,-251.09 77.37,-371.07 51.42,-119.52 125.07,-224.68 220.05,-314.1 101.45,-95.9 214.95,-167.69 340.49,-214.95 126,-47.72 265.45,-71.34 418.32,-71.34 107.02,0 212.64,12.04 317.8,36.59 104.7,24.56 214.95,63.01 329.85,115.81l0 295.11c-120.44,-65.33 -233.49,-113.5 -339.57,-145 -105.62,-31.04 -208.46,-46.79 -308.07,-46.79 -221.9,0 -404.89,69.03 -549.89,207.07 -145,138.05 -217.27,310.86 -217.27,518.86 0,205.69 71.34,377.09 214.02,515.15 142.68,138.05 321.51,207.08 536.93,207.08 110.72,0 222.36,-18.54 335.4,-55.6 113.5,-37.06 228.39,-93.58 345.13,-169.55zm299.73 -1448.16l269.62 0 0 1089.59c0,121.37 6.48,207.54 19.46,258.04 13.43,50.5 35.21,94.51 66.25,131.56 56.05,66.25 122.29,115.35 199.2,148.24 76.9,32.43 164.45,48.64 262.2,48.64 164.46,0 296.96,-42.62 397.48,-127.39 100.53,-85.24 150.56,-197.35 150.56,-336.78l0 -1211.9 269.62 0 0 1220.24c0,211.24 -75.52,382.65 -226.54,514.22 -151.02,131.56 -347.9,197.35 -591.12,197.35 -144.07,0 -273.79,-25.48 -389.6,-76.45 -115.81,-51.42 -213.1,-126 -292.78,-224.68 -49.11,-58.83 -83.39,-124.15 -103.77,-196.42 -20.39,-72.27 -30.58,-183.45 -30.58,-333.55l0 -1100.71zm2040.2 1898.45l0 -1898.45 272.4 0 0 1898.45 -272.4 0zm1384.68 -1639.95l-428.51 0 0 1381.45 428.51 0c234.41,0 418.33,-61.62 552.21,-184.38 133.88,-123.22 200.6,-291.39 200.6,-504.95 0,-214.49 -66.72,-383.58 -200.6,-506.81 -133.87,-123.69 -317.8,-185.31 -552.21,-185.31zm0 -258.5c140.37,0 260.82,12.97 361.81,39.38 100.53,26.41 193.17,67.64 277.03,124.61 128.78,87.1 227.92,198.74 297.88,334.48 69.95,136.2 105.16,286.3 105.16,449.83 0,163.99 -35.21,314.56 -105.62,451.68 -70.89,136.66 -169.56,248.31 -297.42,334.48 -82,56.98 -174.19,98.21 -276.57,124.61 -102.39,26.41 -222.83,39.38 -362.27,39.38l-698.13 0 0 -1898.45 698.13 0zm1675.16 1095.15l591.58 0 -299.73 -683.77 -291.86 683.77zm-625.86 803.29l822.75 -1898.45 197.81 0 833.4 1898.45 -280.74 0 -244.6 -558.7 -808.85 0 -241.36 558.7 -278.42 0zm2693.86 -1639.95l-428.51 0 0 1381.45 428.51 0c234.41,0 418.33,-61.62 552.21,-184.38 133.88,-123.22 200.6,-291.39 200.6,-504.95 0,-214.49 -66.72,-383.58 -200.6,-506.81 -133.87,-123.69 -317.8,-185.31 -552.21,-185.31zm0 -258.5c140.37,0 260.82,12.97 361.81,39.38 100.53,26.41 193.17,67.64 277.03,124.61 128.78,87.1 227.92,198.74 297.88,334.48 69.95,136.2 105.16,286.3 105.16,449.83 0,163.99 -35.21,314.56 -105.62,451.68 -70.89,136.66 -169.56,248.31 -297.42,334.48 -82,56.98 -174.19,98.21 -276.57,124.61 -102.39,26.41 -222.83,39.38 -362.27,39.38l-698.13 0 0 -1898.45 698.13 0zm1548.22 951.08c0,96.82 18.06,189.47 54.2,277.03 36.14,87.56 88.49,165.38 156.12,233.49 66.25,67.63 143.6,119.98 233.02,156.57 88.95,36.6 182.06,55.14 278.88,55.14 99.15,0 192.72,-18.07 280.28,-53.75 87.1,-35.67 165.38,-88.48 233.95,-157.96 67.63,-68.11 119.98,-145.93 156.57,-233.49 36.6,-87.56 55.14,-180.21 55.14,-277.03 0,-96.83 -18.07,-188.08 -54.21,-274.72 -36.13,-86.17 -89.88,-165.38 -160.28,-236.72 -67.64,-69.96 -145.46,-122.76 -233.49,-159.36 -87.56,-36.6 -180.2,-55.13 -277.96,-55.13 -94.51,0 -185.3,18.53 -273.79,55.59 -88.02,37.06 -167.69,89.88 -238.11,158.9 -67.64,65.78 -119.98,143.14 -156.12,232.09 -36.14,88.49 -54.2,181.6 -54.2,279.35zm-289.08 -10.19c0,-126.47 25.94,-249.7 77.37,-368.76 51.42,-119.51 125.07,-225.14 220.05,-316.41 96.82,-93.12 206.15,-163.99 328.45,-213.1 121.84,-48.64 250.63,-73.19 385.43,-73.19 137.12,0 267.77,24.55 391.46,74.12 123.22,49.11 232.09,119.98 326.14,212.17 98.68,95.9 172.79,202.91 222.82,320.12 49.58,117.66 74.59,245.53 74.59,383.11 0,129.25 -25.48,253.41 -76.9,372.46 -50.96,119.06 -123.69,223.76 -217.73,314.1 -98.68,94.04 -208.47,165.38 -330.31,213.56 -121.84,48.65 -252.02,72.74 -390.07,72.74 -134.8,0 -264.06,-25.02 -387.74,-74.59 -123.23,-50.04 -232.1,-120.45 -326.14,-211.71 -97.76,-94.97 -171.87,-202.45 -221.91,-321.51 -50.49,-119.52 -75.51,-247.38 -75.51,-383.11zm3029.26 957.56l0 -1898.45 1142.4 0 0 241.82 -872.78 0 0 575.37 847.76 0 0 244.6 -847.76 0 0 592.05 900.58 0 0 244.6 -1170.2 0z"/>
  <path class="fil1" d="M13362.37 8410.16c-1402.26,-2706.35 -3531.4,-4339.18 -6132.1,-5348.58 2981.84,187.03 5728.01,-538.47 8145.14,-2535.43 -1841.39,2673.07 -2351.57,5283.98 -2013.04,7884.01zm10145.21 8270.07c239.93,0 434.44,194.5 434.44,434.44 0,239.94 -194.51,434.44 -434.44,434.44 -239.94,0 -434.45,-194.5 -434.45,-434.44 0,-239.94 194.51,-434.44 434.45,-434.44zm-155.21 713.44l68.78 0 0 -248.52 92.99 0c10.94,0 20.72,0.79 29.31,2.34 8.6,1.57 16.67,4.95 24.23,10.16 7.56,5.21 13.93,13.42 19.14,24.62 5.22,11.2 8.6,25.92 10.16,44.16l4.7 86.74c1.04,17.2 3.12,33.62 6.25,49.24 3.13,15.63 7.3,26.05 12.5,31.27l82.85 0c-8.87,-5.73 -15.64,-14.46 -20.33,-26.18 -4.69,-11.73 -7.81,-32.18 -9.37,-61.36l-4.7 -95.35c-1.55,-25 -9.24,-46.1 -23.05,-63.3 -13.81,-17.19 -32.43,-27.09 -55.88,-29.69l0 -1.56c30.22,-7.3 52.1,-23.97 65.65,-50.03 13.55,-26.04 20.32,-56.27 20.32,-90.65 0,-43.77 -12.76,-78.02 -38.29,-102.77 -25.53,-24.75 -60.44,-37.13 -104.73,-37.13l-180.52 0 0 558zm68.78 -501.73l82.06 0c31.78,0 56.53,7.95 74.23,23.84 17.72,15.89 26.58,37.64 26.58,65.26 0,25.01 -3.78,45.19 -11.34,60.56 -7.55,15.37 -17.06,26.32 -28.52,32.83 -11.47,6.52 -23.05,10.55 -34.78,12.11 -11.72,1.57 -25.13,2.35 -40.25,2.35l-67.98 0 0 -196.94zm86.44 -160.14c211.45,0 382.87,171.42 382.87,382.87 0,211.45 -171.42,382.87 -382.87,382.87 -211.46,0 -382.87,-171.42 -382.87,-382.87 0,-211.45 171.41,-382.87 382.87,-382.87zm-21538.38 -685.36l1388.54 0 -658.69 -1790.19 -729.85 1790.19zm-1969.2 1721.33l2050.68 -4702.68 1357.56 0 1831.5 4702.68 -1247.39 0 -336.23 -915.75 -2026.58 0 -376.4 915.75 -1253.12 0zm5564.49 0l0 -4702.68 3043.31 0 0 867.55 -1865.93 0 0 1019.02 1748.88 0 0 881.33 -1748.88 0 0 1934.77 -1177.39 0zm3758.24 0l0 -4702.68 3146.6 0 0 867.55 -1969.21 0 0 957.06 1879.7 0 0 874.44 -1879.7 0 0 1122.31 2024.29 0 0 881.32 -3201.68 0zm5096.29 0l0 -3828.25 -1556.08 0 0 -874.43 4351.53 0 0 874.43 -1556.08 0 0 3828.25 -1239.36 0zm4282.68 -2347.9c0,418.85 126.23,764.27 377.54,1033.94 252.46,269.68 573.77,405.09 963.95,405.09 391.31,0 713.78,-135.41 966.25,-405.09 251.31,-269.68 377.54,-615.09 377.54,-1033.94 0,-421.16 -126.23,-767.72 -377.54,-1038.54 -252.47,-271.97 -574.93,-407.38 -966.25,-407.38 -390.17,0 -711.49,135.41 -963.95,407.38 -251.31,270.83 -377.54,617.38 -377.54,1038.54zm-1211.82 0c0,-350 61.97,-672.47 184.75,-969.69 123.93,-297.22 307.55,-562.3 551.98,-795.25 237.54,-223.78 507.22,-391.32 809.02,-500.34 301.81,-110.17 636.89,-165.24 1007.55,-165.24 374.1,0 712.63,55.08 1015.58,166.39 302.96,111.32 572.63,277.71 810.17,499.19 242.14,232.95 425.75,498.04 549.69,795.25 125.08,297.22 187.05,619.68 187.05,969.69 0,347.7 -61.97,669.02 -187.05,966.24 -123.93,297.22 -307.55,560 -549.69,788.37 -239.84,223.77 -511.81,392.46 -815.9,506.07 -302.96,113.6 -640.34,169.84 -1009.85,169.84 -368.36,0 -702.3,-56.24 -1004.11,-167.54 -301.82,-112.46 -572.63,-282.3 -812.47,-508.37 -242.14,-228.37 -425.74,-491.16 -549.68,-788.37 -125.08,-297.22 -187.05,-618.53 -187.05,-966.24zm-6568.53 -15378.16c483.93,-150.63 998.35,119.54 1148.98,603.47 150.64,483.93 -119.54,998.35 -603.47,1148.98 -483.92,150.64 -998.34,-119.54 -1148.98,-603.47 -150.63,-483.92 119.55,-998.35 603.47,-1148.98z"/>
 </g>
</svg>
